<svg width="50" height="14" viewBox="0 0 50 14" fill="none" xmlns="http://www.w3.org/2000/svg">
<path d="M4.35 13.5C4.25 13.5 4.165 13.465 4.095 13.395C4.025 13.335 3.99 13.25 3.99 13.14V12.09C3.27 12.02 2.65 11.85 2.13 11.58C1.62 11.3 1.23 10.96 0.96 10.56C0.7 10.15 0.56 9.715 0.54 9.255C0.54 9.165 0.57 9.09 0.63 9.03C0.7 8.97 0.78 8.94 0.87 8.94H2.205C2.315 8.94 2.4 8.965 2.46 9.015C2.53 9.055 2.595 9.125 2.655 9.225C2.765 9.565 2.995 9.85 3.345 10.08C3.705 10.31 4.2 10.425 4.83 10.425C5.53 10.425 6.06 10.31 6.42 10.08C6.78 9.84 6.96 9.51 6.96 9.09C6.96 8.81 6.87 8.58 6.69 8.4C6.51 8.22 6.235 8.065 5.865 7.935C5.495 7.795 4.95 7.635 4.23 7.455C3.05 7.175 2.185 6.805 1.635 6.345C1.095 5.875 0.825 5.21 0.825 4.35C0.825 3.57 1.105 2.915 1.665 2.385C2.235 1.845 3.01 1.515 3.99 1.395V0.36C3.99 0.249999 4.025 0.164999 4.095 0.104999C4.165 0.0349997 4.25 -1.78814e-07 4.35 -1.78814e-07H5.265C5.365 -1.78814e-07 5.45 0.0349997 5.52 0.104999C5.59 0.175 5.625 0.26 5.625 0.36V1.425C6.275 1.515 6.83 1.71 7.29 2.01C7.76 2.3 8.115 2.64 8.355 3.03C8.605 3.42 8.74 3.8 8.76 4.17C8.76 4.26 8.73 4.335 8.67 4.395C8.61 4.455 8.535 4.485 8.445 4.485H7.05C6.83 4.485 6.68 4.39 6.6 4.2C6.55 3.88 6.355 3.615 6.015 3.405C5.675 3.185 5.25 3.075 4.74 3.075C4.19 3.075 3.755 3.18 3.435 3.39C3.115 3.6 2.955 3.905 2.955 4.305C2.955 4.585 3.035 4.815 3.195 4.995C3.355 5.175 3.605 5.335 3.945 5.475C4.295 5.615 4.795 5.77 5.445 5.94C6.325 6.14 7.025 6.365 7.545 6.615C8.075 6.865 8.465 7.18 8.715 7.56C8.965 7.94 9.09 8.425 9.09 9.015C9.09 9.875 8.78 10.58 8.16 11.13C7.54 11.67 6.695 11.995 5.625 12.105V13.14C5.625 13.24 5.59 13.325 5.52 13.395C5.45 13.465 5.365 13.5 5.265 13.5H4.35ZM13.7937 12C13.6937 12 13.6087 11.965 13.5387 11.895C13.4687 11.825 13.4337 11.74 13.4337 11.64V3.87L11.1537 5.625C11.0937 5.675 11.0237 5.7 10.9437 5.7C10.8237 5.7 10.7237 5.645 10.6437 5.535L10.0137 4.725C9.96367 4.645 9.93867 4.57 9.93867 4.5C9.93867 4.38 9.99367 4.28 10.1037 4.2L13.4637 1.605C13.5537 1.535 13.6787 1.5 13.8387 1.5H15.1587C15.2687 1.5 15.3537 1.535 15.4137 1.605C15.4837 1.665 15.5187 1.75 15.5187 1.86V11.64C15.5187 11.74 15.4837 11.825 15.4137 11.895C15.3537 11.965 15.2687 12 15.1587 12H13.7937ZM21.502 12.15C20.632 12.15 19.882 12.015 19.252 11.745C18.632 11.465 18.157 11.08 17.827 10.59C17.497 10.1 17.332 9.54 17.332 8.91C17.332 8.35 17.472 7.855 17.752 7.425C18.032 6.985 18.407 6.65 18.877 6.42C18.507 6.19 18.217 5.895 18.007 5.535C17.807 5.165 17.707 4.745 17.707 4.275C17.707 3.395 18.037 2.69 18.697 2.16C19.367 1.62 20.302 1.35 21.502 1.35C22.692 1.35 23.617 1.615 24.277 2.145C24.937 2.675 25.267 3.38 25.267 4.26C25.267 4.73 25.167 5.15 24.967 5.52C24.777 5.88 24.497 6.18 24.127 6.42C24.607 6.65 24.982 6.985 25.252 7.425C25.532 7.855 25.672 8.355 25.672 8.925C25.672 9.555 25.507 10.115 25.177 10.605C24.847 11.095 24.367 11.475 23.737 11.745C23.107 12.015 22.362 12.15 21.502 12.15ZM21.502 5.775C22.022 5.765 22.452 5.63 22.792 5.37C23.142 5.11 23.317 4.77 23.317 4.35C23.317 3.91 23.147 3.56 22.807 3.3C22.467 3.04 22.032 2.91 21.502 2.91C20.972 2.91 20.537 3.04 20.197 3.3C19.857 3.56 19.687 3.91 19.687 4.35C19.687 4.78 19.857 5.125 20.197 5.385C20.537 5.645 20.972 5.775 21.502 5.775ZM21.502 10.59C22.092 10.59 22.587 10.44 22.987 10.14C23.387 9.83 23.587 9.425 23.587 8.925C23.587 8.425 23.387 8.025 22.987 7.725C22.587 7.415 22.092 7.26 21.502 7.26C20.902 7.26 20.402 7.41 20.002 7.71C19.612 8.01 19.417 8.415 19.417 8.925C19.417 9.435 19.612 9.84 20.002 10.14C20.402 10.44 20.902 10.59 21.502 10.59ZM27.5832 12C27.4832 12 27.3982 11.965 27.3282 11.895C27.2582 11.825 27.2232 11.74 27.2232 11.64V10.155C27.2232 10.055 27.2582 9.97 27.3282 9.9C27.3982 9.82 27.4832 9.78 27.5832 9.78H29.0832C29.1832 9.78 29.2682 9.82 29.3382 9.9C29.4082 9.97 29.4432 10.055 29.4432 10.155V11.64C29.4432 11.74 29.4082 11.825 29.3382 11.895C29.2682 11.965 29.1832 12 29.0832 12H27.5832ZM35.0958 12.15C33.7658 12.15 32.7708 11.78 32.1108 11.04C31.4608 10.3 31.1058 9.33 31.0458 8.13C31.0358 7.86 31.0308 7.4 31.0308 6.75C31.0308 6.09 31.0358 5.62 31.0458 5.34C31.0958 4.16 31.4558 3.2 32.1258 2.46C32.7958 1.72 33.7858 1.35 35.0958 1.35C36.4158 1.35 37.4108 1.72 38.0808 2.46C38.7508 3.2 39.1058 4.16 39.1458 5.34C39.1658 5.62 39.1758 6.09 39.1758 6.75C39.1758 7.4 39.1658 7.86 39.1458 8.13C39.0958 9.33 38.7408 10.3 38.0808 11.04C37.4308 11.78 36.4358 12.15 35.0958 12.15ZM35.0958 10.425C35.7258 10.425 36.1958 10.22 36.5058 9.81C36.8158 9.39 36.9808 8.805 37.0008 8.055C37.0208 7.475 37.0308 7.035 37.0308 6.735C37.0308 6.405 37.0208 5.97 37.0008 5.43C36.9808 4.69 36.8158 4.11 36.5058 3.69C36.1958 3.27 35.7258 3.06 35.0958 3.06C34.4758 3.06 34.0058 3.27 33.6858 3.69C33.3758 4.11 33.2108 4.69 33.1908 5.43C33.1808 5.7 33.1758 6.135 33.1758 6.735C33.1758 7.325 33.1808 7.765 33.1908 8.055C33.2108 8.805 33.3758 9.39 33.6858 9.81C34.0058 10.22 34.4758 10.425 35.0958 10.425ZM44.9542 12.15C43.6242 12.15 42.6292 11.78 41.9692 11.04C41.3192 10.3 40.9642 9.33 40.9042 8.13C40.8942 7.86 40.8892 7.4 40.8892 6.75C40.8892 6.09 40.8942 5.62 40.9042 5.34C40.9542 4.16 41.3142 3.2 41.9842 2.46C42.6542 1.72 43.6442 1.35 44.9542 1.35C46.2742 1.35 47.2692 1.72 47.9392 2.46C48.6092 3.2 48.9642 4.16 49.0042 5.34C49.0242 5.62 49.0342 6.09 49.0342 6.75C49.0342 7.4 49.0242 7.86 49.0042 8.13C48.9542 9.33 48.5992 10.3 47.9392 11.04C47.2892 11.78 46.2942 12.15 44.9542 12.15ZM44.9542 10.425C45.5842 10.425 46.0542 10.22 46.3642 9.81C46.6742 9.39 46.8392 8.805 46.8592 8.055C46.8792 7.475 46.8892 7.035 46.8892 6.735C46.8892 6.405 46.8792 5.97 46.8592 5.43C46.8392 4.69 46.6742 4.11 46.3642 3.69C46.0542 3.27 45.5842 3.06 44.9542 3.06C44.3342 3.06 43.8642 3.27 43.5442 3.69C43.2342 4.11 43.0692 4.69 43.0492 5.43C43.0392 5.7 43.0342 6.135 43.0342 6.735C43.0342 7.325 43.0392 7.765 43.0492 8.055C43.0692 8.805 43.2342 9.39 43.5442 9.81C43.8642 10.22 44.3342 10.425 44.9542 10.425Z" fill="#363853"/>
</svg>
