<svg width="174" height="15" viewBox="0 0 174 15" fill="none" xmlns="http://www.w3.org/2000/svg">
<path d="M5.085 11.15C3.745 11.15 2.725 10.79 2.025 10.07C1.335 9.35 0.965 8.355 0.915 7.085C0.905 6.815 0.9 6.375 0.9 5.765C0.9 5.145 0.905 4.695 0.915 4.415C0.965 3.155 1.34 2.165 2.04 1.445C2.74 0.714999 3.755 0.349999 5.085 0.349999C5.975 0.349999 6.73 0.509999 7.35 0.83C7.97 1.14 8.44 1.55 8.76 2.06C9.08 2.57 9.255 3.115 9.285 3.695V3.725C9.285 3.805 9.25 3.875 9.18 3.935C9.12 3.985 9.05 4.01 8.97 4.01H8.145C7.945 4.01 7.82 3.895 7.77 3.665C7.6 2.915 7.295 2.39 6.855 2.09C6.415 1.78 5.825 1.625 5.085 1.625C3.365 1.625 2.475 2.58 2.415 4.49C2.405 4.76 2.4 5.175 2.4 5.735C2.4 6.295 2.405 6.72 2.415 7.01C2.475 8.92 3.365 9.875 5.085 9.875C5.825 9.875 6.415 9.725 6.855 9.425C7.305 9.115 7.61 8.585 7.77 7.835C7.8 7.705 7.845 7.615 7.905 7.565C7.965 7.515 8.045 7.49 8.145 7.49H8.97C9.06 7.49 9.135 7.52 9.195 7.58C9.265 7.63 9.295 7.7 9.285 7.79C9.255 8.38 9.08 8.93 8.76 9.44C8.44 9.95 7.97 10.365 7.35 10.685C6.73 10.995 5.975 11.15 5.085 11.15ZM11.4602 11C11.3602 11 11.2752 10.97 11.2052 10.91C11.1452 10.84 11.1152 10.755 11.1152 10.655V0.694999C11.1152 0.595 11.1452 0.515 11.2052 0.455C11.2752 0.385 11.3602 0.349999 11.4602 0.349999H12.2102C12.3102 0.349999 12.3902 0.385 12.4502 0.455C12.5202 0.515 12.5552 0.595 12.5552 0.694999V4.19C12.8452 3.82 13.1852 3.54 13.5752 3.35C13.9652 3.15 14.4502 3.05 15.0302 3.05C15.9902 3.05 16.7352 3.36 17.2652 3.98C17.8052 4.59 18.0752 5.405 18.0752 6.425V10.655C18.0752 10.755 18.0402 10.84 17.9702 10.91C17.9102 10.97 17.8302 11 17.7302 11H16.9802C16.8802 11 16.7952 10.97 16.7252 10.91C16.6652 10.84 16.6352 10.755 16.6352 10.655V6.5C16.6352 5.79 16.4602 5.24 16.1102 4.85C15.7702 4.46 15.2752 4.265 14.6252 4.265C13.9952 4.265 13.4902 4.465 13.1102 4.865C12.7402 5.255 12.5552 5.8 12.5552 6.5V10.655C12.5552 10.755 12.5202 10.84 12.4502 10.91C12.3902 10.97 12.3102 11 12.2102 11H11.4602ZM23.3609 11.15C22.3309 11.15 21.5059 10.835 20.8859 10.205C20.2759 9.565 19.9409 8.695 19.8809 7.595L19.8659 7.085L19.8809 6.59C19.9509 5.51 20.2909 4.65 20.9009 4.01C21.5209 3.37 22.3359 3.05 23.3459 3.05C24.4559 3.05 25.3159 3.405 25.9259 4.115C26.5359 4.815 26.8409 5.765 26.8409 6.965V7.22C26.8409 7.32 26.8059 7.405 26.7359 7.475C26.6759 7.535 26.5959 7.565 26.4959 7.565H21.3059V7.7C21.3359 8.35 21.5309 8.905 21.8909 9.365C22.2609 9.815 22.7459 10.04 23.3459 10.04C23.8059 10.04 24.1809 9.95 24.4709 9.77C24.7709 9.58 24.9909 9.385 25.1309 9.185C25.2209 9.065 25.2859 8.995 25.3259 8.975C25.3759 8.945 25.4609 8.93 25.5809 8.93H26.3159C26.4059 8.93 26.4809 8.955 26.5409 9.005C26.6009 9.055 26.6309 9.125 26.6309 9.215C26.6309 9.435 26.4909 9.7 26.2109 10.01C25.9409 10.32 25.5559 10.59 25.0559 10.82C24.5659 11.04 24.0009 11.15 23.3609 11.15ZM25.4159 6.53V6.485C25.4159 5.795 25.2259 5.235 24.8459 4.805C24.4759 4.365 23.9759 4.145 23.3459 4.145C22.7159 4.145 22.2159 4.365 21.8459 4.805C21.4859 5.235 21.3059 5.795 21.3059 6.485V6.53H25.4159ZM31.7544 11.15C30.7244 11.15 29.8994 10.835 29.2794 10.205C28.6694 9.565 28.3344 8.695 28.2744 7.595L28.2594 7.085L28.2744 6.59C28.3444 5.51 28.6844 4.65 29.2944 4.01C29.9144 3.37 30.7294 3.05 31.7394 3.05C32.8494 3.05 33.7094 3.405 34.3194 4.115C34.9294 4.815 35.2344 5.765 35.2344 6.965V7.22C35.2344 7.32 35.1994 7.405 35.1294 7.475C35.0694 7.535 34.9894 7.565 34.8894 7.565H29.6994V7.7C29.7294 8.35 29.9244 8.905 30.2844 9.365C30.6544 9.815 31.1394 10.04 31.7394 10.04C32.1994 10.04 32.5744 9.95 32.8644 9.77C33.1644 9.58 33.3844 9.385 33.5244 9.185C33.6144 9.065 33.6794 8.995 33.7194 8.975C33.7694 8.945 33.8544 8.93 33.9744 8.93H34.7094C34.7994 8.93 34.8744 8.955 34.9344 9.005C34.9944 9.055 35.0244 9.125 35.0244 9.215C35.0244 9.435 34.8844 9.7 34.6044 10.01C34.3344 10.32 33.9494 10.59 33.4494 10.82C32.9594 11.04 32.3944 11.15 31.7544 11.15ZM33.8094 6.53V6.485C33.8094 5.795 33.6194 5.235 33.2394 4.805C32.8694 4.365 32.3694 4.145 31.7394 4.145C31.1094 4.145 30.6094 4.365 30.2394 4.805C29.8794 5.235 29.6994 5.795 29.6994 6.485V6.53H33.8094ZM39.728 11.15C39.028 11.15 38.438 11.04 37.958 10.82C37.488 10.59 37.133 10.33 36.893 10.04C36.663 9.75 36.548 9.51 36.548 9.32C36.548 9.22 36.583 9.145 36.653 9.095C36.733 9.035 36.813 9.005 36.893 9.005H37.568C37.668 9.005 37.758 9.055 37.838 9.155C38.078 9.435 38.338 9.655 38.618 9.815C38.898 9.975 39.273 10.055 39.743 10.055C40.263 10.055 40.683 9.955 41.003 9.755C41.333 9.545 41.498 9.26 41.498 8.9C41.498 8.66 41.428 8.465 41.288 8.315C41.158 8.155 40.928 8.02 40.598 7.91C40.278 7.79 39.798 7.66 39.158 7.52C38.288 7.33 37.668 7.055 37.298 6.695C36.938 6.335 36.758 5.87 36.758 5.3C36.758 4.92 36.868 4.56 37.088 4.22C37.318 3.87 37.648 3.59 38.078 3.38C38.518 3.16 39.043 3.05 39.653 3.05C40.293 3.05 40.838 3.155 41.288 3.365C41.738 3.575 42.073 3.825 42.293 4.115C42.523 4.395 42.638 4.63 42.638 4.82C42.638 4.91 42.603 4.985 42.533 5.045C42.473 5.105 42.398 5.135 42.308 5.135H41.678C41.558 5.135 41.458 5.085 41.378 4.985C41.218 4.795 41.078 4.65 40.958 4.55C40.848 4.44 40.683 4.345 40.463 4.265C40.253 4.185 39.983 4.145 39.653 4.145C39.173 4.145 38.803 4.25 38.543 4.46C38.283 4.66 38.153 4.925 38.153 5.255C38.153 5.465 38.208 5.645 38.318 5.795C38.428 5.935 38.638 6.065 38.948 6.185C39.268 6.305 39.728 6.43 40.328 6.56C41.278 6.76 41.948 7.05 42.338 7.43C42.738 7.8 42.938 8.275 42.938 8.855C42.938 9.285 42.813 9.675 42.563 10.025C42.313 10.375 41.943 10.65 41.453 10.85C40.973 11.05 40.398 11.15 39.728 11.15ZM47.7945 11.15C46.7645 11.15 45.9395 10.835 45.3195 10.205C44.7095 9.565 44.3745 8.695 44.3145 7.595L44.2995 7.085L44.3145 6.59C44.3845 5.51 44.7245 4.65 45.3345 4.01C45.9545 3.37 46.7695 3.05 47.7795 3.05C48.8895 3.05 49.7495 3.405 50.3595 4.115C50.9695 4.815 51.2745 5.765 51.2745 6.965V7.22C51.2745 7.32 51.2395 7.405 51.1695 7.475C51.1095 7.535 51.0295 7.565 50.9295 7.565H45.7395V7.7C45.7695 8.35 45.9645 8.905 46.3245 9.365C46.6945 9.815 47.1795 10.04 47.7795 10.04C48.2395 10.04 48.6145 9.95 48.9045 9.77C49.2045 9.58 49.4245 9.385 49.5645 9.185C49.6545 9.065 49.7195 8.995 49.7595 8.975C49.8095 8.945 49.8945 8.93 50.0145 8.93H50.7495C50.8395 8.93 50.9145 8.955 50.9745 9.005C51.0345 9.055 51.0645 9.125 51.0645 9.215C51.0645 9.435 50.9245 9.7 50.6445 10.01C50.3745 10.32 49.9895 10.59 49.4895 10.82C48.9995 11.04 48.4345 11.15 47.7945 11.15ZM49.8495 6.53V6.485C49.8495 5.795 49.6595 5.235 49.2795 4.805C48.9095 4.365 48.4095 4.145 47.7795 4.145C47.1495 4.145 46.6495 4.365 46.2795 4.805C45.9195 5.235 45.7395 5.795 45.7395 6.485V6.53H49.8495ZM56.923 11.15C55.843 11.15 55.023 10.775 54.463 10.025V10.655C54.463 10.755 54.428 10.84 54.358 10.91C54.298 10.97 54.218 11 54.118 11H53.428C53.328 11 53.243 10.97 53.173 10.91C53.113 10.84 53.083 10.755 53.083 10.655V0.694999C53.083 0.595 53.113 0.515 53.173 0.455C53.243 0.385 53.328 0.349999 53.428 0.349999H54.163C54.263 0.349999 54.343 0.385 54.403 0.455C54.463 0.515 54.493 0.595 54.493 0.694999V4.145C55.083 3.415 55.893 3.05 56.923 3.05C57.963 3.05 58.748 3.395 59.278 4.085C59.808 4.765 60.093 5.62 60.133 6.65C60.143 6.76 60.148 6.91 60.148 7.1C60.148 7.29 60.143 7.44 60.133 7.55C60.093 8.59 59.808 9.45 59.278 10.13C58.748 10.81 57.963 11.15 56.923 11.15ZM56.608 9.935C57.318 9.935 57.833 9.715 58.153 9.275C58.483 8.835 58.663 8.255 58.693 7.535C58.703 7.435 58.708 7.29 58.708 7.1C58.708 5.21 58.008 4.265 56.608 4.265C55.938 4.265 55.423 4.485 55.063 4.925C54.703 5.365 54.513 5.88 54.493 6.47L54.478 7.055L54.493 7.625C54.523 8.255 54.708 8.8 55.048 9.26C55.398 9.71 55.918 9.935 56.608 9.935ZM64.8989 11.15C63.9489 11.15 63.2139 10.845 62.6939 10.235C62.1739 9.615 61.9139 8.795 61.9139 7.775V3.545C61.9139 3.445 61.9439 3.365 62.0039 3.305C62.0739 3.235 62.1589 3.2 62.2589 3.2H63.0089C63.1089 3.2 63.1889 3.235 63.2489 3.305C63.3189 3.365 63.3539 3.445 63.3539 3.545V7.7C63.3539 9.19 64.0039 9.935 65.3039 9.935C65.9339 9.935 66.4339 9.74 66.8039 9.35C67.1739 8.95 67.3589 8.4 67.3589 7.7V3.545C67.3589 3.445 67.3889 3.365 67.4489 3.305C67.5189 3.235 67.6039 3.2 67.7039 3.2H68.4539C68.5539 3.2 68.6339 3.235 68.6939 3.305C68.7539 3.365 68.7839 3.445 68.7839 3.545V10.655C68.7839 10.755 68.7539 10.84 68.6939 10.91C68.6339 10.97 68.5539 11 68.4539 11H67.7489C67.6489 11 67.5639 10.97 67.4939 10.91C67.4339 10.84 67.4039 10.755 67.4039 10.655V9.995C67.1239 10.375 66.7839 10.665 66.3839 10.865C65.9839 11.055 65.4889 11.15 64.8989 11.15ZM71.3573 11C71.2573 11 71.1723 10.97 71.1023 10.91C71.0423 10.84 71.0123 10.755 71.0123 10.655V3.56C71.0123 3.46 71.0423 3.375 71.1023 3.305C71.1723 3.235 71.2573 3.2 71.3573 3.2H72.0473C72.1473 3.2 72.2323 3.235 72.3023 3.305C72.3723 3.375 72.4073 3.46 72.4073 3.56V4.22C72.8173 3.54 73.5173 3.2 74.5073 3.2H75.0923C75.1923 3.2 75.2723 3.235 75.3323 3.305C75.4023 3.365 75.4373 3.445 75.4373 3.545V4.16C75.4373 4.26 75.4023 4.34 75.3323 4.4C75.2723 4.46 75.1923 4.49 75.0923 4.49H74.1923C73.6523 4.49 73.2273 4.65 72.9173 4.97C72.6073 5.28 72.4523 5.705 72.4523 6.245V10.655C72.4523 10.755 72.4173 10.84 72.3473 10.91C72.2773 10.97 72.1923 11 72.0923 11H71.3573ZM79.7445 14.3C78.9245 14.3 78.2645 14.16 77.7645 13.88C77.2645 13.61 76.9095 13.3 76.6995 12.95C76.4895 12.6 76.3745 12.285 76.3545 12.005C76.3445 11.905 76.3745 11.82 76.4445 11.75C76.5245 11.68 76.6095 11.645 76.6995 11.645H77.4195C77.5095 11.645 77.5845 11.665 77.6445 11.705C77.7045 11.755 77.7545 11.84 77.7945 11.96C77.9145 12.28 78.1095 12.555 78.3795 12.785C78.6595 13.025 79.0895 13.145 79.6695 13.145C80.4095 13.145 80.9545 12.985 81.3045 12.665C81.6545 12.355 81.8295 11.8 81.8295 11V9.98C81.5695 10.31 81.2395 10.575 80.8395 10.775C80.4395 10.965 79.9645 11.06 79.4145 11.06C78.3545 11.06 77.5595 10.725 77.0295 10.055C76.5095 9.375 76.2345 8.515 76.2045 7.475L76.1895 7.055L76.2045 6.65C76.2345 5.62 76.5145 4.765 77.0445 4.085C77.5745 3.395 78.3645 3.05 79.4145 3.05C80.4645 3.05 81.2845 3.435 81.8745 4.205V3.56C81.8745 3.46 81.9045 3.375 81.9645 3.305C82.0345 3.235 82.1195 3.2 82.2195 3.2H82.9095C83.0095 3.2 83.0945 3.235 83.1645 3.305C83.2345 3.375 83.2695 3.46 83.2695 3.56V10.835C83.2695 13.145 82.0945 14.3 79.7445 14.3ZM79.7145 9.86C80.3945 9.86 80.9095 9.635 81.2595 9.185C81.6095 8.735 81.7995 8.2 81.8295 7.58C81.8395 7.49 81.8445 7.315 81.8445 7.055C81.8445 6.805 81.8395 6.635 81.8295 6.545C81.7995 5.925 81.6095 5.39 81.2595 4.94C80.9195 4.49 80.4045 4.265 79.7145 4.265C79.0045 4.265 78.4895 4.485 78.1695 4.925C77.8495 5.365 77.6745 5.945 77.6445 6.665L77.6295 7.055L77.6445 7.46C77.6745 8.17 77.8495 8.75 78.1695 9.2C78.4895 9.64 79.0045 9.86 79.7145 9.86ZM88.6196 11.15C87.5896 11.15 86.7646 10.835 86.1446 10.205C85.5346 9.565 85.1996 8.695 85.1396 7.595L85.1246 7.085L85.1396 6.59C85.2096 5.51 85.5496 4.65 86.1596 4.01C86.7796 3.37 87.5946 3.05 88.6046 3.05C89.7146 3.05 90.5746 3.405 91.1846 4.115C91.7946 4.815 92.0996 5.765 92.0996 6.965V7.22C92.0996 7.32 92.0646 7.405 91.9946 7.475C91.9346 7.535 91.8546 7.565 91.7546 7.565H86.5646V7.7C86.5946 8.35 86.7896 8.905 87.1496 9.365C87.5196 9.815 88.0046 10.04 88.6046 10.04C89.0646 10.04 89.4396 9.95 89.7296 9.77C90.0296 9.58 90.2496 9.385 90.3896 9.185C90.4796 9.065 90.5446 8.995 90.5846 8.975C90.6346 8.945 90.7196 8.93 90.8396 8.93H91.5746C91.6646 8.93 91.7396 8.955 91.7996 9.005C91.8596 9.055 91.8896 9.125 91.8896 9.215C91.8896 9.435 91.7496 9.7 91.4696 10.01C91.1996 10.32 90.8146 10.59 90.3146 10.82C89.8246 11.04 89.2596 11.15 88.6196 11.15ZM90.6746 6.53V6.485C90.6746 5.795 90.4846 5.235 90.1046 4.805C89.7346 4.365 89.2346 4.145 88.6046 4.145C87.9746 4.145 87.4746 4.365 87.1046 4.805C86.7446 5.235 86.5646 5.795 86.5646 6.485V6.53H90.6746ZM94.2382 11C94.1382 11 94.0532 10.97 93.9832 10.91C93.9232 10.84 93.8932 10.755 93.8932 10.655V3.56C93.8932 3.46 93.9232 3.375 93.9832 3.305C94.0532 3.235 94.1382 3.2 94.2382 3.2H94.9282C95.0282 3.2 95.1132 3.235 95.1832 3.305C95.2532 3.375 95.2882 3.46 95.2882 3.56V4.22C95.6982 3.54 96.3982 3.2 97.3882 3.2H97.9732C98.0732 3.2 98.1532 3.235 98.2132 3.305C98.2832 3.365 98.3182 3.445 98.3182 3.545V4.16C98.3182 4.26 98.2832 4.34 98.2132 4.4C98.1532 4.46 98.0732 4.49 97.9732 4.49H97.0732C96.5332 4.49 96.1082 4.65 95.7982 4.97C95.4882 5.28 95.3332 5.705 95.3332 6.245V10.655C95.3332 10.755 95.2982 10.84 95.2282 10.91C95.1582 10.97 95.0732 11 94.9732 11H94.2382ZM104.647 11C104.387 11 104.232 10.865 104.182 10.595L102.247 0.965C102.237 0.915 102.232 0.86 102.232 0.8C102.232 0.72 102.262 0.65 102.322 0.59C102.382 0.529999 102.452 0.499999 102.532 0.499999H103.312C103.522 0.499999 103.642 0.584999 103.672 0.755L105.202 8.495L106.822 3.185C106.912 2.945 107.072 2.825 107.302 2.825H107.857C107.987 2.825 108.087 2.86 108.157 2.93C108.237 3 108.292 3.085 108.322 3.185L109.957 8.495L111.472 0.755C111.502 0.584999 111.627 0.499999 111.847 0.499999H112.627C112.707 0.499999 112.777 0.529999 112.837 0.59C112.897 0.65 112.927 0.72 112.927 0.8L112.912 0.965L110.977 10.595C110.917 10.865 110.762 11 110.512 11H109.927C109.667 11 109.502 10.875 109.432 10.625L107.572 4.91L105.727 10.625C105.647 10.875 105.482 11 105.232 11H104.647ZM114.919 1.745C114.819 1.745 114.734 1.715 114.664 1.655C114.604 1.585 114.574 1.5 114.574 1.4V0.59C114.574 0.489999 114.604 0.404999 114.664 0.335C114.734 0.264999 114.819 0.229999 114.919 0.229999H115.864C115.964 0.229999 116.049 0.264999 116.119 0.335C116.189 0.404999 116.224 0.489999 116.224 0.59V1.4C116.224 1.5 116.189 1.585 116.119 1.655C116.049 1.715 115.964 1.745 115.864 1.745H114.919ZM115.039 11C114.939 11 114.854 10.97 114.784 10.91C114.724 10.84 114.694 10.755 114.694 10.655V3.545C114.694 3.445 114.724 3.365 114.784 3.305C114.854 3.235 114.939 3.2 115.039 3.2H115.759C115.859 3.2 115.939 3.235 115.999 3.305C116.069 3.365 116.104 3.445 116.104 3.545V10.655C116.104 10.755 116.069 10.84 115.999 10.91C115.939 10.97 115.859 11 115.759 11H115.039ZM121.372 11C119.792 11 119.002 10.12 119.002 8.36V4.4H117.832C117.732 4.4 117.647 4.37 117.577 4.31C117.517 4.24 117.487 4.155 117.487 4.055V3.545C117.487 3.445 117.517 3.365 117.577 3.305C117.647 3.235 117.732 3.2 117.832 3.2H119.002V0.694999C119.002 0.595 119.032 0.515 119.092 0.455C119.162 0.385 119.247 0.349999 119.347 0.349999H120.052C120.152 0.349999 120.232 0.385 120.292 0.455C120.362 0.515 120.397 0.595 120.397 0.694999V3.2H122.257C122.357 3.2 122.437 3.235 122.497 3.305C122.567 3.365 122.602 3.445 122.602 3.545V4.055C122.602 4.155 122.567 4.24 122.497 4.31C122.437 4.37 122.357 4.4 122.257 4.4H120.397V8.255C120.397 8.755 120.482 9.135 120.652 9.395C120.822 9.645 121.102 9.77 121.492 9.77H122.407C122.507 9.77 122.587 9.805 122.647 9.875C122.717 9.935 122.752 10.015 122.752 10.115V10.655C122.752 10.755 122.717 10.84 122.647 10.91C122.587 10.97 122.507 11 122.407 11H121.372ZM124.546 11C124.446 11 124.361 10.97 124.291 10.91C124.231 10.84 124.201 10.755 124.201 10.655V0.694999C124.201 0.595 124.231 0.515 124.291 0.455C124.361 0.385 124.446 0.349999 124.546 0.349999H125.296C125.396 0.349999 125.476 0.385 125.536 0.455C125.606 0.515 125.641 0.595 125.641 0.694999V4.19C125.931 3.82 126.271 3.54 126.661 3.35C127.051 3.15 127.536 3.05 128.116 3.05C129.076 3.05 129.821 3.36 130.351 3.98C130.891 4.59 131.161 5.405 131.161 6.425V10.655C131.161 10.755 131.126 10.84 131.056 10.91C130.996 10.97 130.916 11 130.816 11H130.066C129.966 11 129.881 10.97 129.811 10.91C129.751 10.84 129.721 10.755 129.721 10.655V6.5C129.721 5.79 129.546 5.24 129.196 4.85C128.856 4.46 128.361 4.265 127.711 4.265C127.081 4.265 126.576 4.465 126.196 4.865C125.826 5.255 125.641 5.8 125.641 6.5V10.655C125.641 10.755 125.606 10.84 125.536 10.91C125.476 10.97 125.396 11 125.296 11H124.546ZM140.574 11.15C139.744 11.15 139.024 11.02 138.414 10.76C137.814 10.5 137.354 10.16 137.034 9.74C136.714 9.31 136.544 8.85 136.524 8.36C136.524 8.28 136.554 8.21 136.614 8.15C136.684 8.08 136.764 8.045 136.854 8.045H137.619C137.809 8.045 137.939 8.145 138.009 8.345C138.099 8.765 138.354 9.125 138.774 9.425C139.204 9.725 139.804 9.875 140.574 9.875C141.404 9.875 142.029 9.73 142.449 9.44C142.869 9.14 143.079 8.725 143.079 8.195C143.079 7.855 142.974 7.58 142.764 7.37C142.564 7.16 142.264 6.975 141.864 6.815C141.464 6.655 140.864 6.455 140.064 6.215C139.284 5.995 138.664 5.76 138.204 5.51C137.744 5.26 137.399 4.95 137.169 4.58C136.939 4.21 136.824 3.745 136.824 3.185C136.824 2.645 136.969 2.16 137.259 1.73C137.559 1.3 137.984 0.965 138.534 0.724999C139.084 0.474999 139.739 0.349999 140.499 0.349999C141.279 0.349999 141.949 0.489999 142.509 0.769999C143.069 1.04 143.494 1.385 143.784 1.805C144.074 2.225 144.229 2.645 144.249 3.065C144.249 3.145 144.219 3.215 144.159 3.275C144.109 3.335 144.034 3.365 143.934 3.365H143.139C142.929 3.365 142.799 3.27 142.749 3.08C142.689 2.66 142.454 2.315 142.044 2.045C141.634 1.765 141.119 1.625 140.499 1.625C139.819 1.625 139.284 1.755 138.894 2.015C138.504 2.275 138.309 2.66 138.309 3.17C138.309 3.51 138.399 3.79 138.579 4.01C138.769 4.23 139.054 4.425 139.434 4.595C139.814 4.755 140.369 4.94 141.099 5.15C141.949 5.38 142.619 5.62 143.109 5.87C143.599 6.11 143.964 6.415 144.204 6.785C144.444 7.145 144.564 7.605 144.564 8.165C144.564 9.095 144.204 9.825 143.484 10.355C142.764 10.885 141.794 11.15 140.574 11.15ZM148.51 11.15C148.02 11.15 147.565 11.05 147.145 10.85C146.725 10.65 146.39 10.38 146.14 10.04C145.9 9.69 145.78 9.305 145.78 8.885C145.78 8.225 146.05 7.685 146.59 7.265C147.14 6.835 147.88 6.555 148.81 6.425L151.045 6.11V5.675C151.045 4.655 150.46 4.145 149.29 4.145C148.85 4.145 148.49 4.24 148.21 4.43C147.93 4.61 147.72 4.825 147.58 5.075C147.55 5.165 147.51 5.23 147.46 5.27C147.42 5.31 147.36 5.33 147.28 5.33H146.635C146.545 5.33 146.465 5.3 146.395 5.24C146.335 5.17 146.305 5.09 146.305 5C146.315 4.76 146.425 4.49 146.635 4.19C146.855 3.88 147.19 3.615 147.64 3.395C148.09 3.165 148.645 3.05 149.305 3.05C150.425 3.05 151.23 3.315 151.72 3.845C152.21 4.365 152.455 5.015 152.455 5.795V10.655C152.455 10.755 152.42 10.84 152.35 10.91C152.29 10.97 152.21 11 152.11 11H151.42C151.32 11 151.235 10.97 151.165 10.91C151.105 10.84 151.075 10.755 151.075 10.655V10.01C150.855 10.33 150.535 10.6 150.115 10.82C149.695 11.04 149.16 11.15 148.51 11.15ZM148.825 10.025C149.475 10.025 150.005 9.815 150.415 9.395C150.835 8.965 151.045 8.35 151.045 7.55V7.13L149.305 7.385C148.595 7.485 148.06 7.655 147.7 7.895C147.34 8.125 147.16 8.42 147.16 8.78C147.16 9.18 147.325 9.49 147.655 9.71C147.985 9.92 148.375 10.025 148.825 10.025ZM154.971 11C154.871 11 154.786 10.97 154.716 10.91C154.656 10.84 154.626 10.755 154.626 10.655V0.694999C154.626 0.595 154.656 0.515 154.716 0.455C154.786 0.385 154.871 0.349999 154.971 0.349999H155.676C155.776 0.349999 155.856 0.385 155.916 0.455C155.986 0.515 156.021 0.595 156.021 0.694999V10.655C156.021 10.755 155.986 10.84 155.916 10.91C155.856 10.97 155.776 11 155.676 11H154.971ZM160.433 11.15C159.943 11.15 159.488 11.05 159.068 10.85C158.648 10.65 158.313 10.38 158.063 10.04C157.823 9.69 157.703 9.305 157.703 8.885C157.703 8.225 157.973 7.685 158.513 7.265C159.063 6.835 159.803 6.555 160.733 6.425L162.968 6.11V5.675C162.968 4.655 162.383 4.145 161.213 4.145C160.773 4.145 160.413 4.24 160.133 4.43C159.853 4.61 159.643 4.825 159.503 5.075C159.473 5.165 159.433 5.23 159.383 5.27C159.343 5.31 159.283 5.33 159.203 5.33H158.558C158.468 5.33 158.388 5.3 158.318 5.24C158.258 5.17 158.228 5.09 158.228 5C158.238 4.76 158.348 4.49 158.558 4.19C158.778 3.88 159.113 3.615 159.563 3.395C160.013 3.165 160.568 3.05 161.228 3.05C162.348 3.05 163.153 3.315 163.643 3.845C164.133 4.365 164.378 5.015 164.378 5.795V10.655C164.378 10.755 164.343 10.84 164.273 10.91C164.213 10.97 164.133 11 164.033 11H163.343C163.243 11 163.158 10.97 163.088 10.91C163.028 10.84 162.998 10.755 162.998 10.655V10.01C162.778 10.33 162.458 10.6 162.038 10.82C161.618 11.04 161.083 11.15 160.433 11.15ZM160.748 10.025C161.398 10.025 161.928 9.815 162.338 9.395C162.758 8.965 162.968 8.35 162.968 7.55V7.13L161.228 7.385C160.518 7.485 159.983 7.655 159.623 7.895C159.263 8.125 159.083 8.42 159.083 8.78C159.083 9.18 159.248 9.49 159.578 9.71C159.908 9.92 160.298 10.025 160.748 10.025ZM169.385 11.15C168.345 11.15 167.56 10.81 167.03 10.13C166.5 9.45 166.22 8.59 166.19 7.55L166.175 7.1L166.19 6.65C166.22 5.62 166.5 4.765 167.03 4.085C167.56 3.395 168.345 3.05 169.385 3.05C170.415 3.05 171.225 3.415 171.815 4.145V0.694999C171.815 0.595 171.845 0.515 171.905 0.455C171.975 0.385 172.06 0.349999 172.16 0.349999H172.88C172.98 0.349999 173.06 0.385 173.12 0.455C173.19 0.515 173.225 0.595 173.225 0.694999V10.655C173.225 10.755 173.19 10.84 173.12 10.91C173.06 10.97 172.98 11 172.88 11H172.205C172.105 11 172.02 10.97 171.95 10.91C171.89 10.84 171.86 10.755 171.86 10.655V10.025C171.28 10.775 170.455 11.15 169.385 11.15ZM169.7 9.935C170.39 9.935 170.905 9.71 171.245 9.26C171.595 8.8 171.785 8.255 171.815 7.625C171.825 7.515 171.83 7.325 171.83 7.055C171.83 6.775 171.825 6.58 171.815 6.47C171.795 5.88 171.605 5.365 171.245 4.925C170.885 4.485 170.37 4.265 169.7 4.265C168.99 4.265 168.47 4.485 168.14 4.925C167.82 5.365 167.645 5.945 167.615 6.665L167.6 7.1C167.6 8.99 168.3 9.935 169.7 9.935Z" fill="#363853"/>
</svg>
