<svg width="210" height="70" viewBox="0 0 210 70" fill="none" xmlns="http://www.w3.org/2000/svg">
<rect width="210" height="70" rx="8" fill="white"/>
<path d="M118.2 42C118.067 42 117.953 41.96 117.86 41.88C117.78 41.7867 117.74 41.6733 117.74 41.54V28.48C117.74 28.3333 117.78 28.22 117.86 28.14C117.953 28.0467 118.067 28 118.2 28H123.28C124.787 28 125.973 28.3667 126.84 29.1C127.707 29.8333 128.14 30.8933 128.14 32.28C128.14 33.6667 127.707 34.7267 126.84 35.46C125.987 36.18 124.8 36.54 123.28 36.54H119.74V41.54C119.74 41.6733 119.693 41.7867 119.6 41.88C119.507 41.96 119.393 42 119.26 42H118.2ZM123.18 34.86C124.153 34.86 124.887 34.64 125.38 34.2C125.887 33.76 126.14 33.12 126.14 32.28C126.14 31.44 125.893 30.8 125.4 30.36C124.907 29.9067 124.167 29.68 123.18 29.68H119.72V34.86H123.18ZM130.612 29.66C130.479 29.66 130.365 29.62 130.272 29.54C130.192 29.4467 130.152 29.3333 130.152 29.2V28.12C130.152 27.9867 130.192 27.8733 130.272 27.78C130.365 27.6867 130.479 27.64 130.612 27.64H131.872C132.005 27.64 132.119 27.6867 132.212 27.78C132.305 27.8733 132.352 27.9867 132.352 28.12V29.2C132.352 29.3333 132.305 29.4467 132.212 29.54C132.119 29.62 132.005 29.66 131.872 29.66H130.612ZM130.772 42C130.639 42 130.525 41.96 130.432 41.88C130.352 41.7867 130.312 41.6733 130.312 41.54V32.06C130.312 31.9267 130.352 31.82 130.432 31.74C130.525 31.6467 130.639 31.6 130.772 31.6H131.732C131.865 31.6 131.972 31.6467 132.052 31.74C132.145 31.82 132.192 31.9267 132.192 32.06V41.54C132.192 41.6733 132.145 41.7867 132.052 41.88C131.972 41.96 131.865 42 131.732 42H130.772ZM134.956 42C134.822 42 134.709 41.96 134.616 41.88C134.536 41.7867 134.496 41.6733 134.496 41.54V40.84C134.496 40.7333 134.522 40.6267 134.576 40.52C134.642 40.4 134.709 40.2933 134.776 40.2L140.296 33.18H135.136C135.002 33.18 134.889 33.14 134.796 33.06C134.716 32.9667 134.676 32.8533 134.676 32.72V32.06C134.676 31.9267 134.716 31.82 134.796 31.74C134.889 31.6467 135.002 31.6 135.136 31.6H142.256C142.389 31.6 142.496 31.6467 142.576 31.74C142.669 31.82 142.716 31.9267 142.716 32.06V32.8C142.716 32.9067 142.682 33.0133 142.616 33.12C142.562 33.2267 142.502 33.3267 142.436 33.42L136.976 40.42H142.656C142.802 40.42 142.916 40.46 142.996 40.54C143.076 40.62 143.116 40.7333 143.116 40.88V41.54C143.116 41.6733 143.069 41.7867 142.976 41.88C142.896 41.96 142.789 42 142.656 42H134.956ZM145.132 42C144.998 42 144.885 41.96 144.792 41.88C144.712 41.7867 144.672 41.6733 144.672 41.54V40.84C144.672 40.7333 144.698 40.6267 144.752 40.52C144.818 40.4 144.885 40.2933 144.952 40.2L150.472 33.18H145.312C145.178 33.18 145.065 33.14 144.972 33.06C144.892 32.9667 144.852 32.8533 144.852 32.72V32.06C144.852 31.9267 144.892 31.82 144.972 31.74C145.065 31.6467 145.178 31.6 145.312 31.6H152.432C152.565 31.6 152.672 31.6467 152.752 31.74C152.845 31.82 152.892 31.9267 152.892 32.06V32.8C152.892 32.9067 152.858 33.0133 152.792 33.12C152.738 33.2267 152.678 33.3267 152.612 33.42L147.152 40.42H152.832C152.978 40.42 153.092 40.46 153.172 40.54C153.252 40.62 153.292 40.7333 153.292 40.88V41.54C153.292 41.6733 153.245 41.7867 153.152 41.88C153.072 41.96 152.965 42 152.832 42H145.132ZM158.407 42.2C157.754 42.2 157.147 42.0667 156.587 41.8C156.027 41.5333 155.581 41.1733 155.247 40.72C154.927 40.2533 154.767 39.74 154.767 39.18C154.767 38.3 155.127 37.58 155.847 37.02C156.581 36.4467 157.567 36.0733 158.807 35.9L161.787 35.48V34.9C161.787 33.54 161.007 32.86 159.447 32.86C158.861 32.86 158.381 32.9867 158.007 33.24C157.634 33.48 157.354 33.7667 157.167 34.1C157.127 34.22 157.074 34.3067 157.007 34.36C156.954 34.4133 156.874 34.44 156.767 34.44H155.907C155.787 34.44 155.681 34.4 155.587 34.32C155.507 34.2267 155.467 34.12 155.467 34C155.481 33.68 155.627 33.32 155.907 32.92C156.201 32.5067 156.647 32.1533 157.247 31.86C157.847 31.5533 158.587 31.4 159.467 31.4C160.961 31.4 162.034 31.7533 162.687 32.46C163.341 33.1533 163.667 34.02 163.667 35.06V41.54C163.667 41.6733 163.621 41.7867 163.527 41.88C163.447 41.96 163.341 42 163.207 42H162.287C162.154 42 162.041 41.96 161.947 41.88C161.867 41.7867 161.827 41.6733 161.827 41.54V40.68C161.534 41.1067 161.107 41.4667 160.547 41.76C159.987 42.0533 159.274 42.2 158.407 42.2ZM158.827 40.7C159.694 40.7 160.401 40.42 160.947 39.86C161.507 39.2867 161.787 38.4667 161.787 37.4V36.84L159.467 37.18C158.521 37.3133 157.807 37.54 157.327 37.86C156.847 38.1667 156.607 38.56 156.607 39.04C156.607 39.5733 156.827 39.9867 157.267 40.28C157.707 40.56 158.227 40.7 158.827 40.7Z" fill="#363853"/>
<g clip-path="url(#clip0_0_168)">
<path d="M106.87 35.1174C106.868 35.4473 106.677 35.7474 106.379 35.8883L72.1399 52.1286C71.7992 53.5417 70.8126 54.7795 69.3701 55.3772C66.9754 56.369 64.2201 55.2278 63.2281 52.8331C60.8892 47.1862 59.7032 41.224 59.7032 35.1119C59.7032 28.9999 60.8891 23.0377 63.2281 17.3908C63.471 16.8044 63.8195 16.2933 64.2427 15.8701C65.5477 14.5652 67.5618 14.0976 69.3701 14.8468C70.5867 15.3508 71.479 16.3104 71.9333 17.4463L106.389 34.3403C106.685 34.4855 106.872 34.7875 106.87 35.1174ZM76.0339 48.3794L79.6625 46.6581C79.642 46.0095 79.3344 45.3958 78.8073 44.9913C78.343 44.6352 77.7679 44.481 77.1878 44.5573C76.6077 44.6337 76.0925 44.9312 75.7359 45.3956C75.3798 45.8597 75.2256 46.4348 75.302 47.0149C75.3724 47.5494 75.6309 48.0288 76.0339 48.3794ZM68.7124 16.4348C67.1932 15.8055 65.4451 16.5296 64.8162 18.0487C60.2584 29.0521 60.2584 41.1718 64.8161 52.1753C65.1209 52.9112 65.694 53.4843 66.43 53.7892C67.1659 54.094 67.9764 54.094 68.7123 53.7892C69.4482 53.4843 70.0213 52.9112 70.3261 52.1753C70.6309 51.4394 70.6309 50.6289 70.3261 49.893C68.3751 45.1831 67.386 40.2101 67.386 35.112C67.386 30.0139 68.3752 25.0409 70.3261 20.3309C70.9555 18.8118 70.2315 17.0639 68.7124 16.4348ZM92.5385 29.4635C92.4849 29.5198 92.433 29.5781 92.3852 29.6402C92.0291 30.1043 91.875 30.6794 91.9514 31.2594C92.0277 31.8395 92.3255 32.3552 92.7896 32.7113C93.7478 33.4465 95.1252 33.2653 95.8609 32.3069C96.0878 32.0112 96.2318 31.6645 96.2868 31.3012L92.5385 29.4635ZM97.8723 32.0788C97.7374 32.5361 97.5195 32.9687 97.2244 33.3533C95.9126 35.0641 93.4534 35.3871 91.7432 34.0749C90.9148 33.4392 90.3836 32.5191 90.2473 31.4838C90.116 30.4866 90.3672 29.4981 90.954 28.6865L86.2145 26.3626L85.8913 28.8175C85.8293 29.2879 85.3976 29.6194 84.9271 29.5573C84.4565 29.4954 84.1254 29.0637 84.1873 28.5931L84.5861 25.5641L72.2596 19.5202C72.2252 20.0127 72.1134 20.5078 71.9144 20.9885C68.1419 30.0962 68.1419 40.1275 71.9144 49.235C72.0456 49.5517 72.1384 49.8749 72.197 50.1993L74.4045 49.1522C73.971 48.6051 73.6916 47.9493 73.5981 47.2393C73.4617 46.2041 73.7368 45.1776 74.3725 44.3493C74.479 44.2105 74.5932 44.0803 74.7149 43.9586C75.3194 43.3541 76.1017 42.9668 76.9635 42.8532C77.9989 42.7169 79.0251 42.992 79.8537 43.6277C80.5974 44.1984 81.0949 45.0027 81.2898 45.8863L91.5369 41.0259L91.132 40.0484C90.9949 39.7174 91.0799 39.3499 91.3183 39.1115C91.3958 39.034 91.4895 38.9702 91.5971 38.9256C92.0355 38.7439 92.5383 38.9523 92.7199 39.3907L93.0918 40.2883L104.032 35.099L97.8723 32.0788Z" fill="#363853"/>
<path d="M66.3733 43.3603C66.3744 43.365 66.377 43.3777 66.3779 43.3825C66.4709 43.8476 66.1693 44.2991 65.7042 44.3925C65.2398 44.4856 64.7876 44.1845 64.6928 43.7208C64.6304 43.4257 64.7276 43.1334 64.9265 42.9346C65.039 42.822 65.1841 42.7394 65.351 42.7032C65.8148 42.6023 66.2725 42.8966 66.3733 43.3603Z" fill="#363853"/>
<path d="M66.9588 45.794C67.4049 47.4245 67.9592 49.0434 68.6063 50.6057C68.788 51.0443 68.5794 51.547 68.1411 51.7285C67.7026 51.9102 67.2 51.7019 67.0184 51.2634C66.3438 49.6348 65.7661 47.9471 65.3011 46.2476C65.2167 45.939 65.3116 45.6236 65.5227 45.4125C65.6248 45.3104 65.754 45.2327 65.9031 45.1919C66.3609 45.0667 66.8336 45.3362 66.9588 45.794Z" fill="#363853"/>
<path d="M87.3514 39.4321C87.2469 39.5684 87.1326 39.6988 87.0118 39.8196C85.6313 41.2 83.4209 41.3437 81.8703 40.1538C80.1602 38.8416 79.8364 36.3828 81.1486 34.6727C81.2531 34.5363 81.3674 34.406 81.4882 34.2852C82.8686 32.9048 85.079 32.7611 86.6298 33.9511C88.3398 35.2633 88.6635 37.722 87.3514 39.4321ZM85.5835 35.3146C84.7145 34.6478 83.4764 34.7277 82.7036 35.5006C82.6356 35.5685 82.5712 35.642 82.5122 35.719C81.7769 36.6773 81.9584 38.0549 82.9166 38.7903C83.7856 39.457 85.0235 39.377 85.7964 38.6042C85.8643 38.5363 85.9288 38.4628 85.9878 38.3858C86.7229 37.4275 86.5416 36.0498 85.5835 35.3146Z" fill="#363853"/>
<path d="M79.6346 32.0315C79.53 32.1679 79.4158 32.2982 79.295 32.419C77.9145 33.7995 75.7041 33.9432 74.1534 32.7532C73.3249 32.1176 72.7937 31.1974 72.6574 30.1621C72.521 29.1269 72.796 28.1005 73.4316 27.272C73.5362 27.1358 73.6505 27.0055 73.7712 26.8848C75.1516 25.5044 77.3621 25.3606 78.9129 26.5506C80.623 27.8626 80.9466 30.3214 79.6346 32.0315ZM77.8667 27.914C76.9976 27.2472 75.7595 27.3272 74.9867 28.1C74.9188 28.1679 74.8544 28.2414 74.7954 28.3183C74.4393 28.7826 74.2852 29.3577 74.3615 29.9377C74.4378 30.5178 74.7355 31.0334 75.1998 31.3896C76.0687 32.0564 77.3068 31.9764 78.0796 31.2036C78.1475 31.1357 78.212 31.0622 78.271 30.9852C79.0062 30.0271 78.8248 28.6493 77.8667 27.914Z" fill="#363853"/>
<path d="M78.1442 38.5568L76.5224 40.6705C76.234 41.0472 75.694 41.1181 75.3175 40.8292C74.9409 40.5403 74.8699 40.0008 75.1588 39.6243L76.7806 37.5107C76.8039 37.4802 76.829 37.4517 76.8554 37.4253C77.1556 37.125 77.6394 37.0865 77.9854 37.352C78.362 37.6408 78.4331 38.1803 78.1442 38.5568Z" fill="#363853"/>
<path d="M72.7126 35.0196L73.801 36.4378C74.0899 36.8144 74.0191 37.3539 73.6424 37.6427C73.2658 37.9316 72.7264 37.8607 72.4375 37.4841L71.3492 36.0659C71.0836 35.7198 71.1221 35.2361 71.4224 34.9358C71.4489 34.9093 71.4773 34.8843 71.5078 34.861C71.8843 34.5721 72.4237 34.6431 72.7126 35.0196Z" fill="#363853"/>
</g>
<defs>
<clipPath id="clip0_0_168">
<rect width="44" height="44" fill="white" transform="matrix(0.707107 -0.707107 -0.707107 -0.707107 76.1128 66.2253)"/>
</clipPath>
</defs>
</svg>
